# xmcd
#
# Track frame offsets: 
#        150
#        11845
#        23405
#        36450
#        49037
#        59412
#        73135
#        86780
#        98825
#        108940
#        120940
#        133807
#        147400
#        157002
#        168910
#        180150
#        192570
#        206400
#        220362
#        233305
#
# Disc length: 3353 seconds
#
# Revision: 5
# Processed by: cddbd v1.5.2PL0 Copyright (c) Steve Scherf et al.
# Submitted via: ExactAudioCopy v0.99pb4
#
DISCID=160d1714
DTITLE=Various Artist - Sweet Dreams of Country: Golden Stars, Golden Memorie
DTITLE=s [Disc 1]
DYEAR=1990
DGENRE=Country
TTITLE0=Patsy Cline - Sweet Dreams  (Of You)
TTITLE1=Eddy Arnold - Welcome to My World
TTITLE2=Patti Page - Allegheny Moon
TTITLE3=Jim Reeves - Blue Side of Lonesome
TTITLE4=Loretta Lynn - I Wanna Be Free
TTITLE5=Bobby Goldsboro - And I Love You So
TTITLE6=Elvis Presley - There Goes My Everything
TTITLE7=Brenda Lee - I'm Sorry
TTITLE8=Slim Whitman - The Twelfth of Never
TTITLE9=Skeeter Davis - The End of The World
TTITLE10=Conway Twitty - I Can't Stop Loving You
TTITLE11=Patsy Cline and Jim Reeves - Have You Ever Been Lonely (Have 
TTITLE11=You Ever Been Blue)
TTITLE12=Eddy Arnold - Misty Blue
TTITLE13=Patti Page - Old Cape Cod
TTITLE14=Slim Whitman - My Happiness
TTITLE15=Floyd Cramer - Somwhere, My Love (Lara's Theme from Doctor Zh
TTITLE15=ivago)
TTITLE16=Patsy Cline - You Belong to Me
TTITLE17=Jim Reeves - Auf Wiederseh'n Sweetheart
TTITLE18=Elvis Presley - Love Letters
TTITLE19=Dottie West - With Pen in Hand
EXTD=
EXTT0=
EXTT1=
EXTT2=
EXTT3=
EXTT4=
EXTT5=
EXTT6=
EXTT7=
EXTT8=
EXTT9=
EXTT10=
EXTT11=
EXTT12=
EXTT13=
EXTT14=
EXTT15=
EXTT16=
EXTT17=
EXTT18=
EXTT19=
PLAYORDER=
